# xmcd
#
# Track frame offsets:
#     180
#     17571
#     39969
#     57911
#     75133
#     91480
#     108246
#     123902
#     142286
#     156262
#     170017
#
# Disc length: 2520
#
# Revision: 9
# Processed by: cddbd v1.5.2PL0 Copyright (c) Steve Scherf et al.
# Submitted via: fre:ac v1.0.17
#
DISCID=8409d60b
DTITLE=Orlando Pops Orchestra / Andrew Lloyd Webber Gold
DYEAR=1996
DGENRE=Musical
TTITLE0=Phantom of the Opera (from Phantom of the Opera)
TTITLE1=Music of the Night (from Phantom of the Opera)
TTITLE2=Wishing You Were Somehow Here Again (from Phantom of the Opera)
TTITLE3=Sunset Blvd. Entr' Acte - Instrumental (from Sunset Boulevard)
TTITLE4=With One Look (from Sunset Boulevard)
TTITLE5=Memory (from Cats)
TTITLE6=Tell Me On A Sunday (from Song and Dance)
TTITLE7=The Last Man In My Life (from Song and Dance)
TTITLE8=Love Changes Everything (from Aspects of Love)
TTITLE9=Anything But Lonely (from Aspects of Love)
TTITLE10=Seeing Is Believing (from Aspects of Love)
EXTD=YEAR: 1996
EXTT0=
EXTT1=
EXTT2=
EXTT3=
EXTT4=
EXTT5=
EXTT6=
EXTT7=
EXTT8=
EXTT9=
EXTT10=
PLAYORDER=
.
